<?xml version="1.0" encoding="UTF-8" standalone="no"?>
<svg
   id="Icono_1"
   viewBox="0 0 24 24"
   version="1.1"
   sodipodi:docname="lasso_delete.svg"
   inkscape:version="1.2.2 (b0a8486541, 2022-12-01)"
   xmlns:inkscape="http://www.inkscape.org/namespaces/inkscape"
   xmlns:sodipodi="http://sodipodi.sourceforge.net/DTD/sodipodi-0.dtd"
   xmlns="http://www.w3.org/2000/svg"
   xmlns:svg="http://www.w3.org/2000/svg">
  <sodipodi:namedview
     id="namedview30"
     pagecolor="#ffffff"
     bordercolor="#000000"
     borderopacity="0.25"
     inkscape:showpageshadow="2"
     inkscape:pageopacity="0.0"
     inkscape:pagecheckerboard="0"
     inkscape:deskcolor="#d1d1d1"
     showgrid="false"
     inkscape:zoom="35.083333"
     inkscape:cx="10.061758"
     inkscape:cy="12.014252"
     inkscape:window-width="1920"
     inkscape:window-height="1043"
     inkscape:window-x="1920"
     inkscape:window-y="0"
     inkscape:window-maximized="1"
     inkscape:current-layer="Icono_1" />
  <defs
     id="defs4">
    <style
       id="style2">.cls-1{fill:#000094;stroke:#000094;}.cls-1,.cls-2{stroke-miterlimit:10;stroke-width:.1px;}.cls-3,.cls-2{fill:#fff;}.cls-2{stroke:#fff;}</style>
  </defs>
  <g
     id="Cuadro_rayas"
     style="fill:#008eff;fill-opacity:1">
    <polygon
       class="cls-1"
       points="22.47 20.98 22.47 22.48 20.98 22.48 22.47 20.98"
       id="polygon6"
       style="fill:#008eff;fill-opacity:1" />
    <polygon
       class="cls-1"
       points="3 1.5 1.5 3 1.5 1.5 3 1.5"
       id="polygon8"
       style="fill:#008eff;fill-opacity:1" />
    <polygon
       class="cls-1"
       points="8.99 1.5 1.5 8.99 1.5 5.99 5.99 1.5 8.99 1.5"
       id="polygon10"
       style="fill:#008eff;fill-opacity:1" />
    <polygon
       class="cls-1"
       points="22.47 14.98 22.47 17.98 17.98 22.48 14.98 22.48 22.47 14.98"
       id="polygon12"
       style="fill:#008eff;fill-opacity:1" />
    <polygon
       class="cls-1"
       points="14.98 1.5 1.5 14.98 1.5 11.99 11.99 1.5 14.98 1.5"
       id="polygon14"
       style="fill:#008eff;fill-opacity:1" />
    <polygon
       class="cls-1"
       points="22.47 8.99 22.47 11.99 11.99 22.48 8.99 22.48 22.47 8.99"
       id="polygon16"
       style="fill:#008eff;fill-opacity:1" />
    <polygon
       class="cls-1"
       points="20.98 1.5 1.5 21.13 1.5 17.98 17.98 1.5 20.98 1.5"
       id="polygon18"
       style="fill:#008eff;fill-opacity:1" />
    <polygon
       class="cls-1"
       points="22.47 3 22.47 5.99 5.99 22.48 3 22.48 22.47 3"
       id="polygon20"
       style="fill:#008eff;fill-opacity:1" />
  </g>
  <g
     id="Cabeza">
    <ellipse
       class="cls-3"
       cx="12"
       cy="8.29"
       rx="3.74"
       ry="3.85"
       id="ellipse23" />
  </g>
  <g
     id="Cuerpo">
    <polygon
       class="cls-2"
       points="18.02 21.03 5.98 21.03 5.98 16.53 8.98 13.54 14.97 13.54 17.97 16.53 18.02 21.03"
       id="polygon26" />
  </g>
</svg>
